<svg xmlns="http://www.w3.org/2000/svg" viewBox="0 0 132.29 132.29"><g transform="translate(-20.95 -19.94)"><path d="M32.96 117.7l-.23-62.65L86.9 23.49l54.24 30.93.26 62.73-54.12 31.54z" fill="#1e2862"/><path d="M32.72 117.84l.09-12.65c32.62-15.05 71.77-17.04 108.75-1.33l.08 13.45-54.32 31.85z" fill="#33399c"/><path d="M50.7 127.98c39.37-21.43 35.49-66.27 2.1-84.93l34-19.83 35.55 20.2c-34.06 20.4-34.1 64 1.73 84.14l-36.84 21.4z" fill="#171719"/><path d="M51.24 44.63l3.36-2c32.54 13.97 35.33 58.54 7.4 77.61 16.07-12.16 30.1-52.88-10.76-75.61z" fill="#8ad6fb"/><path d="M59.06 122.28c33.48-23.52 17.31-65.8-10.18-76.32l3-1.73c19.45 7.71 26.58 26.27 27.18 38.6.36 7.4-.8 27.14-20 39.45z" fill="#f9d98a"/><path d="M61.04 120.92c21.92-17.25 24.89-58.13-13.27-74.25l1.9-1.1c30.81 9.7 39.61 54.55 11.37 75.35z" fill="#f82d2d"/><path d="M46.84 47.14l1.29-.68c28.16 8.73 40.65 48.57 15.42 72.32 22.05-22.5 14.54-60.98-16.7-71.64z" fill="#9d3434"/><path d="M121.1 128.73c-31.37-13.06-36.27-57.47-7.75-77.4-32.28 29.26-10.76 69.27 11.47 75.2z" fill="#8ad6fb"/><path d="M116.69 49.3c-28.86 21.66-23.16 63.23 10.14 76.08l-2.98 1.7C89.21 112.72 88.4 66.3 116.7 49.3z" fill="#f9d98a"/><path d="M126.09 125.8c-30.59-11-40.45-51.87-11.44-75.05-27.19 23.25-16.42 63.87 13.38 73.83z" fill="#f82d2d"/><path d="M127.57 124.87c-30.9-10.94-37.5-48.26-17.6-69.63-21.92 25.7-7.77 60.97 18.87 68.9z" fill="#9d3434"/><path d="M89.35 90.76h-7.37v-5.24l.82.01a5.16 5.16 0 004.64 3.43c4.1-.05.88-2.77-1.58-4.14-2.46-1.37-3.88-3.32-3.88-4.3v-2.55c0-1.66 2.75-4.02 3.8-4.02h6.47c.53 0 1.43.4 1.43.77v5.07h-.44c-1.13-1.98-2.24-3.3-3.92-3.31-3.9-.04-1 3.28.83 4.16 1.83.88 3.53 1.87 3.53 3.34v3.7c0 1.57-2.72 3.08-4.33 3.08zm9.46-1.25V76.4l-1.74-2.46h12.47c1.3 0 3.09 1.61 3.08 4.9 0 3.27-1.47 4.94-4.14 5.65-1.3.34-2.7.5-3.83 1v3.14l2.83 2.12H96.83zm5.84-14.18v8.36c2.35-.37 3.68-2.89 3.65-4.87-.07-3.71-2.58-3.51-3.65-3.5zm-41.63 1.72l-1.38.01-1.6-3.1h11.44L70.25 77H68.5l3.07 7.24 4.5-7.74-2.24-.07 1-2.48h5.77l-.91 2.54-1.44-.04L70 90.75z" fill="#fefefe" stroke-width=".69" stroke-miterlimit="2" stroke="#000" paint-order="stroke fill markers" stroke-linejoin="round"/><path d="M126.21 119.51c-.5-.4-1.06-.09-1.93-.9.4-.3-.14-1.34-.75-1.91-.1-.46-.08-.69.32-.69.98.02 1.15-.55 1.07-1.02 1.53-.05 1.9.13 2.41-1.06l.6.05c.88-.05 1.15-.21 1.84-.72l.53-.43a7.04 7.04 0 00-1.38-3.45c-.9-1-2.33-.93-4.01-.39l-.66-.38c-.7-.41-.95-.67-1.75-1.86l-.52-.77h-1.17c-1.39 0-1.56-.06-1.97-.68-.33-.5-.32-.7.07-1.68l.24-.62-.38-1c-.44-1.18-.43-1.73.02-2.75l.26-.58a9.5 9.5 0 01-.55-1.54c-.04-.27-.32-.3-.34-.5-.02-.15-.28-.16-.24-.42 7.8 1.59 16.76 4.49 23.65 7.6l.11 12.71c-.27.22-.68.33-1.84.2-2.52-.27-2.86-.34-5.69 2.43-1.88 1.84-1.6 3.06-5.03 2.63-.78-.1-2.7-2.03-2.9-2.27zm-91.36-2.57l-.66-.58-.35-.94c.45-.37.93-.88 1.55-.96.42-.05 1.34-.62 1.77-.53.19.04.36.14 1.2-.45 0 0 .97-.03 1.32.01 1.42.15 1.36 0 1.53-.17.1-.1.21-.24.42-.28.13-.02.34-.24.38-.35.1-.23.35-.34 1.84-.5.35-.25.93-.67 1.04-.91.27-.86.27-1.37.63-1.64.38-.28 1.12-.33 1.94-.11.18.11.39.4.39.4.25-.1.4-.5.64-.61l.4-.05.6-.43.56.17.1.5-.35.77c-.49.2-.54.18-1.33.9.28 1.08-.53 2.3-1.8 2.96a3.1 3.1 0 00-1.67-.08c-.25.58.27 1.77-.87 2.42l-.81-.08.05-1.14c-2.28-.02-2.6.42-3.26 1.78l-.66.47-1.4.02c-1.1-.68-1.26-.75-3.2-.59zm15.8-11.58l1.19-.25c.42-.4.85-.84 1.26-1.13l.14-.57.64-.5h.5s.1.47.13.54l.46.62.08.97c.34.3.42.65.48 1.13a1.6 1.6 0 01-1.18.59l-1.92.16-1.9.9-.88-1.53z" fill="#348b2e"/><path d="M58.12 128.78l-.6-6.9-6.86-1.33 6.27-3.12-.7-6.26 4.42 4.37 6.27-2.46-3.17 5.61 4.41 5.02-6.3-1.23zm51.37-74l-6.97-1.26 6.35-3.14-.64-6.22 4.4 4.36 6.24-2.52-3.14 5.63 4.4 5.04-6.23-1.3-3.81 6.37zM48.27 94.57l-1.57-.48 1.6-.5.46-1.7.47 1.7 1.65.5-1.65.48-.46 1.67zm-11.12-8.55l-.48-1.71-1.67-.52 1.66-.53.48-1.74.49 1.75 1.7.5-1.7.5zm14.8-10.68l-2.38-.72 2.4-.74.69-2.47.68 2.46 2.43.76-2.42.71-.7 2.48zm-11-9.5l-2.4-.7 2.4-.75.7-2.44.7 2.45 2.42.73-2.43.72-.67 2.53zm89.92 26.11l-2.45-.74 2.42-.76.74-2.5.7 2.5 2.42.76-2.4.75-.74 2.52zm-11.03-9.5l-2.42-.73 2.43-.73.71-2.52.72 2.51 2.43.74-2.4.75-.75 2.53zm14.03-9.9l1.7-.5.5-1.77.48 1.74 1.7.54-1.68.51-.5 1.74-.5-1.75zm-9.92-9.83l-1.58-.46 1.63-.52.46-1.7.45 1.72 1.7.5-1.68.5-.48 1.7z" fill="#d5b459"/><path d="M63.57 92.84a.6.6 0 00-.42.16.54.54 0 00-.17.4c0 .15.06.3.17.4.11.1.26.16.42.16a.6.6 0 00.42-.16c.11-.1.17-.24.17-.4 0-.15-.05-.3-.16-.4a.6.6 0 00-.43-.16zm12.06.01a.13.13 0 00-.13.13v4.25c0 .07.06.13.13.13h.85c.07 0 .12-.06.12-.13v-4.25a.13.13 0 00-.12-.13zm2.83 1.5c0 .56.36 1 .87 1.23.29.1.56.25.82.42.07.08.1.14.1.21 0 .09-.03.15-.12.2a.83.83 0 01-.45.1c-.38 0-.71-.13-1.01-.4a.13.13 0 00-.2.1v.88c0 .04.02.09.06.1.32.17.72.25 1.2.25.52 0 .94-.1 1.24-.32.3-.23.47-.57.47-.98 0-.28-.09-.54-.25-.75-.17-.21-.46-.4-.82-.56-.37-.17-.58-.3-.63-.35a.29.29 0 01-.09-.22c0-.1.03-.15.13-.21s.24-.1.43-.1c.33 0 .62.08.86.23.09.06.2 0 .2-.1v-.79c0-.05-.04-.1-.09-.11a2.94 2.94 0 00-1.07-.16c-.45 0-.86.1-1.17.34a1.2 1.2 0 00-.48.99zM59.03 93.1a.13.13 0 00-.12.17l1.38 4c.02.05.07.08.12.08h.97c.05 0 .1-.03.11-.08l1.4-4a.13.13 0 00-.12-.17h-.9c-.05 0-.1.03-.11.09l-.85 2.73-.84-2.73a.13.13 0 00-.12-.1zm36.63 0a.13.13 0 00-.12.12v4c0 .07.05.13.12.13h.86c.07 0 .12-.06.12-.12v-1.27h.32c.48 0 .9-.12 1.22-.38.33-.27.5-.65.5-1.09 0-.45-.14-.8-.42-1.04-.28-.24-.69-.35-1.2-.35zm-29.14 1.2c0-.03-.05-.04-.07-.05a.63.63 0 00-.27-.04.8.8 0 00-.6.26v-.05a.13.13 0 00-.12-.13h-.85a.13.13 0 00-.13.13v2.8c0 .07.06.13.13.13h.85c.07 0 .13-.06.13-.12v-1.4a.9.9 0 01.13-.53c.07-.1.2-.17.32-.16.12 0 .22.02.3.07.06.03.16 0 .19-.07zm.12.85l.11.01h.39v1.2c0 .34.08.61.27.8.18.19.46.27.8.27.27 0 .48-.03.64-.12a.13.13 0 00.07-.1v-.63c0-.1-.1-.16-.19-.11a.5.5 0 01-.24.07c-.1 0-.15-.02-.19-.07-.03-.04-.06-.12-.06-.25v-1.06h.55c.07 0 .13-.06.13-.13v-.62a.13.13 0 00-.13-.12h-.55v-.73c0-.07-.1-.18-.13-.15l-.88.26a.13.13 0 00-.1.13v.49h-.49zm30-1.14h.25c.23 0 .38.05.47.13.09.08.14.2.14.39 0 .2-.05.31-.15.4-.09.08-.24.13-.47.13h-.23zm-24.04.46a.13.13 0 00-.06.1v.67c0 .1.12.16.2.1.3-.21.62-.32.95-.32.16 0 .27.04.33.1.04.04.06.1.08.18l-.69.09c-.35.05-.63.15-.83.33-.2.18-.3.44-.3.73 0 .3.1.54.3.72.19.17.44.26.74.26s.55-.1.75-.3v.09c0 .07.06.12.13.12h.76c.07 0 .13-.05.13-.12V95.5c0-.42-.1-.75-.34-.98a1.27 1.27 0 00-.87-.33 2.75 2.75 0 00-1.28.28zm10.19.02v-.1a.13.13 0 00-.13-.12h-.85a.13.13 0 00-.12.13v4.08c0 .07.05.13.12.13h.85c.07 0 .13-.06.13-.13v-1.3c.19.15.42.23.7.23.41 0 .77-.16 1.04-.47.26-.31.39-.72.39-1.22 0-.45-.11-.83-.34-1.11a1.17 1.17 0 00-.93-.42c-.36 0-.64.1-.86.3zm2.51-.03a.13.13 0 00-.06.11v.66c0 .1.12.17.2.1.3-.2.61-.31.95-.31.16 0 .26.04.33.1.04.03.06.1.08.17l-.7.1c-.34.04-.63.15-.82.33-.2.18-.3.44-.3.73s.1.54.3.71c.19.18.44.26.74.26s.55-.1.75-.29v.08c0 .07.06.13.13.13h.76c.07 0 .13-.06.13-.13v-1.7c0-.42-.11-.76-.34-.98a1.27 1.27 0 00-.87-.34c-.44 0-.88.1-1.28.27zm3.2.2c-.32.3-.48.73-.48 1.23-.01.42.14.82.44 1.12.3.29.68.43 1.14.43.38 0 .68-.05.9-.18a.13.13 0 00.07-.11v-.65c0-.1-.1-.15-.18-.1-.2.1-.39.15-.59.15a.68.68 0 01-.5-.18.79.79 0 01-.18-.53c0-.25.07-.42.2-.55.12-.13.29-.19.51-.19.2 0 .39.05.56.15.08.06.19 0 .19-.1v-.69a.13.13 0 00-.07-.1c-.19-.11-.45-.15-.87-.15-.41 0-.83.15-1.15.45zm3.79-.45c-.44 0-.82.15-1.11.46-.3.3-.44.71-.44 1.2 0 .47.13.87.41 1.15.28.28.68.42 1.16.42.43 0 .8-.08 1.08-.25a.13.13 0 00.07-.1v-.63c0-.1-.12-.17-.2-.1a1.3 1.3 0 01-.75.23.8.8 0 01-.5-.14.5.5 0 01-.14-.28h1.72c.07 0 .12-.06.12-.13v-.35c0-.44-.12-.81-.38-1.08-.25-.27-.61-.4-1.04-.4zm7.75.2a.13.13 0 00-.12-.12h-.85a.13.13 0 00-.13.13v2.8c0 .07.06.13.13.13h.85c.07 0 .12-.06.12-.12v-1.4a.9.9 0 01.14-.53c.07-.1.2-.17.32-.16.12 0 .21.02.29.07.08.04.19-.02.19-.11v-.74a.12.12 0 00-.07-.11.78.78 0 00-.34-.04.8.8 0 00-.53.26zm1.42.23c-.32.3-.48.7-.48 1.2 0 .47.16.87.46 1.16.31.3.73.44 1.23.44.51 0 .93-.15 1.25-.45.3-.3.46-.71.46-1.2 0-.48-.15-.87-.46-1.15-.3-.3-.71-.43-1.22-.43-.5 0-.92.14-1.24.43zm3.4.04c-.26.31-.39.73-.39 1.22-.02.4.1.8.36 1.11.24.28.58.43.97.43.3 0 .57-.1.78-.28 0 .18-.08.35-.2.48-.14.13-.34.2-.62.2-.3 0-.6-.09-.85-.24a.13.13 0 00-.18.11v.71c0 .05.03.1.07.12.26.12.58.17.99.17a2 2 0 001.4-.46c.34-.31.51-.76.51-1.3v-2.53a.13.13 0 00-.12-.13h-.86a.13.13 0 00-.12.13v.02c-.22-.17-.5-.25-.77-.23-.34 0-.7.16-.97.47zm4.37-.21v-.05a.13.13 0 00-.12-.13h-.85a.13.13 0 00-.13.13v2.8c0 .07.06.13.13.13h.85c.07 0 .12-.06.12-.12v-1.4a.9.9 0 01.14-.53c.07-.1.2-.17.32-.16a.5.5 0 01.29.07c.08.04.19-.02.19-.11v-.74a.12.12 0 00-.07-.11.78.78 0 00-.34-.04.8.8 0 00-.53.26zm1.2.11v.67c0 .1.11.16.2.1.3-.22.61-.32.95-.32.16 0 .26.04.32.1.05.03.07.1.08.18l-.68.09c-.36.05-.64.15-.83.33-.2.18-.3.44-.3.73 0 .3.1.54.3.71.18.18.44.27.74.27s.55-.1.75-.3v.09c0 .06.05.12.12.12h.77c.07 0 .13-.06.13-.12v-1.71c0-.42-.11-.75-.34-.98a1.27 1.27 0 00-.87-.33c-.42 0-.84.07-1.23.23-.09.06-.11.1-.11.14zm4.02-.16a.13.13 0 00-.12-.13h-.84a.13.13 0 00-.13.13v2.8c0 .07.06.13.13.13h.85c.07 0 .13-.06.13-.12v-1.58c0-.18.04-.32.12-.42.07-.1.16-.13.28-.13.14 0 .22.03.27.1.06.08.1.2.1.4v1.63c0 .06.05.12.12.12h.77c.07 0 .12-.06.12-.12v-1.58c0-.17.05-.3.13-.4.08-.11.16-.15.28-.15.13 0 .2.03.27.1.05.08.1.22.1.42v1.6c0 .07.05.13.12.13h.85c.07 0 .13-.06.13-.12v-1.76c0-.4-.09-.71-.27-.93-.18-.23-.46-.33-.8-.33-.39 0-.71.16-.95.44a.93.93 0 00-.76-.44c-.29 0-.49.05-.62.12-.13.07-.2.13-.28.19zm-51.26-.13a.13.13 0 00-.13.13v2.8c0 .07.06.13.13.13h.85c.07 0 .12-.06.12-.12v-2.81a.13.13 0 00-.12-.13zm6-.01a.13.13 0 00-.12.12v1.7c0 .42.08.75.27.98.2.23.49.34.84.34.3 0 .55-.1.76-.3v.1c0 .06.05.12.12.12h.85c.07 0 .13-.06.13-.13v-2.8a.13.13 0 00-.13-.13h-.85a.13.13 0 00-.12.12v1.62c0 .17-.05.3-.12.38-.07.1-.16.13-.3.13-.13 0-.2-.03-.26-.1a.75.75 0 01-.1-.4V94.4a.13.13 0 00-.12-.12zm22.69 1.12c.03-.1.07-.18.14-.26a.38.38 0 01.3-.11c.13 0 .21.03.27.1.05.06.08.15.1.27zm-8.07.32c0 .29-.05.48-.15.61-.1.14-.21.2-.4.2a.42.42 0 01-.33-.15.6.6 0 01-.14-.42v-.24c0-.2.05-.36.15-.47.1-.12.22-.17.39-.17s.28.05.35.14c.08.1.13.27.13.5zm18.88-.62c.22 0 .35.05.44.16.1.1.15.28.15.54 0 .27-.06.46-.15.57-.09.12-.22.17-.43.17-.22 0-.37-.06-.46-.16-.1-.11-.15-.3-.15-.56 0-.25.05-.43.16-.54.1-.12.24-.18.44-.18zm3.43 0a.4.4 0 01.34.15c.1.1.15.23.15.39v.25c0 .2-.06.36-.16.48a.44.44 0 01-.37.17.43.43 0 01-.36-.16.79.79 0 01-.15-.5c0-.28.06-.47.16-.6s.21-.18.39-.18zm-32 .91c0 .15-.09.36-.15.42a.5.5 0 01-.36.15.37.37 0 01-.23-.07c-.06-.04-.08-.09-.08-.16 0-.09.03-.14.08-.18.09-.06.2-.1.3-.1zm12.7 0a.7.7 0 01-.15.42c-.1.1-.2.14-.36.14-.11 0-.19-.02-.24-.06a.2.2 0 01-.07-.17c0-.08.03-.13.08-.18.09-.06.2-.1.3-.1zm25.18.01a.6.6 0 01-.14.42.5.5 0 01-.36.15.38.38 0 01-.24-.07c-.05-.05-.07-.09-.07-.16 0-.1.02-.14.08-.18.09-.06.2-.1.3-.1z" fill="#fffffb" stroke="#000" stroke-width=".25" stroke-linecap="round" paint-order="fill markers stroke"/><path d="M75.3 67.53a.09.09 0 00-.06.11l.18.59H73.4a.09.09 0 00-.08.09v.7c0 .05.04.09.08.09h.77c.2.7.53 1.32.98 1.86-.5.32-1.1.6-1.83.84a.09.09 0 00-.04.13c.15.2.32.44.5.73.03.04.07.05.11.04.78-.3 1.44-.64 2-1.05.54.43 1.2.78 1.96 1.05.04.01.08 0 .1-.04.09-.15.28-.4.56-.74a.09.09 0 00-.05-.14 5.69 5.69 0 01-1.84-.81c.45-.52.8-1.15 1.05-1.87h.7c.05 0 .09-.04.09-.1v-.7a.09.09 0 00-.09-.08h-1.9l-.27-.8c-.01-.04-.04-.06-.07-.06zm21.1-.08a.09.09 0 00-.08.11l.1.32h-1.86a.09.09 0 00-.08.09v1.12c0 .05.03.09.08.09h.4l-.45.19a.09.09 0 00-.04.13l.34.54h-.03a.09.09 0 00-.09.08v.61c0 .05.04.09.09.09h1.13c-.15.53-.6.92-1.38 1.16a.09.09 0 00-.05.13l.42.65c.02.03.06.05.1.03 1.06-.36 1.67-1.03 1.82-1.97h.61v1.05c0 .23.06.42.2.55.12.12.31.18.54.18h.53c.18 0 .36-.06.52-.18.1-.08.17-.23.23-.44a6 6 0 00.14-.87.09.09 0 00-.06-.1l-.62-.2a.09.09 0 00-.11.08 18.38 18.38 0 01-.11.88.1.1 0 01-.05.05.2.2 0 01-.1.03h-.11c-.06 0-.08-.02-.1-.03l-.02-.12v-1.58a.09.09 0 00-.09-.08H96.9l.03-.51c0-.05-.04-.1-.09-.1h-.54c.11-.05.23-.1.34-.17a.09.09 0 00.02-.13l-.33-.45h1.09l-.35.42c-.03.05-.02.1.03.14l1.68.96c.03.02.08.01.1-.03l.4-.58a.09.09 0 00-.03-.13c-.16-.1-.35-.19-.53-.28h.57c.05 0 .08-.04.08-.09v-1.12a.09.09 0 00-.08-.09H97.4l-.15-.46c-.02-.04-.05-.06-.07-.06zm-16.88 0a.09.09 0 00-.08.06 9.8 9.8 0 01-.93 2.34c.1.4.17.7.2.9.02.08.12.1.16.04l.22-.32v2c0 .05.03.1.08.1h.68c.05 0 .09-.05.09-.1v-.28l.34.38c.03.04.1.04.13 0 .14-.18.25-.37.36-.58.13.21.25.41.34.59.02.04.07.06.12.04.4-.2.74-.44 1.04-.7.28.26.6.49.95.68.04.02.09 0 .11-.04.14-.25.29-.5.45-.74a.09.09 0 00-.04-.14c-.32-.09-.6-.23-.87-.41a4.26 4.26 0 00.72-1.52v-.66a.09.09 0 00-.09-.09h-2.33v-.36a32.4 32.4 0 002.5-.19c.05 0 .08-.06.06-.11l-.22-.7a.09.09 0 00-.1-.06c-.7.1-1.7.17-3 .22a.09.09 0 00-.09.08v2c0 .7-.13 1.26-.38 1.73v-2.82c.13-.34.26-.69.37-1.05a.09.09 0 00-.07-.11l-.7-.18h-.02zm24.9 0h-.02c-.54.16-1.26.28-2.14.35a.09.09 0 00-.08.08v.37l-.28-.66a.09.09 0 00-.1-.05c-.53.18-1.13.3-1.81.34a.09.09 0 00-.08.09v2.2c0 .84-.12 1.45-.36 1.83a.09.09 0 00.01.12c.2.18.4.37.58.56.03.05.1.04.13 0 .25-.35.39-.9.44-1.61h1.2c.04 0 .08-.04.08-.09V69a.09.09 0 00-.09-.08h-1.16v-.32a8.48 8.48 0 001.44-.24v1.6c0 .97-.2 1.66-.6 2.1-.04.04-.03.1.01.13.2.14.4.3.6.5.04.03.1.03.13-.01.47-.61.7-1.51.7-2.7v-.07h.37v2.63c0 .05.04.09.09.09h.68c.04 0 .08-.04.08-.1v-2.62h.5c.04 0 .08-.04.08-.09v-.64a.09.09 0 00-.09-.1h-1.71v-.5c.67-.06 1.25-.15 1.71-.26a.09.09 0 00.07-.12l-.3-.7a.09.09 0 00-.07-.05zm-36 .26a.09.09 0 00-.09.09v.7c0 .05.04.1.09.1h1.72c0 .3-.03.58-.07.83h-1.94a.09.09 0 00-.08.1v.71c0 .05.04.09.08.09h1.73c-.2.62-.8 1.18-1.82 1.65a.09.09 0 00-.02.15c.25.26.44.47.57.64.03.03.07.04.1.02a4.2 4.2 0 001.9-1.92c.43.9 1.07 1.55 1.94 1.92.04.02.08 0 .1-.02.26-.33.46-.57.6-.72a.09.09 0 00-.04-.14c-.9-.27-1.52-.8-1.9-1.58h1.83c.04 0 .08-.04.08-.09v-.72a.09.09 0 00-.08-.09h-2.1l.05-.84h1.78c.05 0 .1-.04.1-.08v-.71a.09.09 0 00-.1-.09zm22.63 1.55a.09.09 0 00-.1-.09h-.69c.08-.21.14-.43.2-.66h.55c.04 0 .08-.04.08-.09v-.62a.09.09 0 00-.08-.09h-1.77a.09.09 0 00-.09.09v.62c0 .05.04.1.09.1h.39a4.37 4.37 0 01-.64 1.44.09.09 0 000 .09c.1.23.2.5.26.78.02.08.11.1.15.03l.03-.04v1.46c0 .05.04.09.09.09h.57c.04 0 .08-.04.08-.09v-.2l.54-.01c-.01.02.02.13.07.16.22.15.43.3.63.46.03.03.08.03.11 0 .5-.48.78-1.22.85-2.2h.5v2.05c0 .05.03.09.08.09h.67c.04 0 .08-.04.08-.1V70.5h.52c.05 0 .08-.03.08-.08v-.63a.09.09 0 00-.08-.09h-.52v-1.18h.38c.04 0 .08-.04.08-.09v-.62a.09.09 0 00-.08-.09H91.2a.09.09 0 00-.08.09v.62c0 .05.03.1.08.1h.34v1.17h-.47m-4.26-1.34h1.05v.14h-1.05zm5.57.16h.47v1.18h-.47zm2.92.17h.67l-.67.35zm3.23 0v.4l-.74-.4zm-23.4.43h1.46c-.16.47-.4.88-.73 1.24a3.57 3.57 0 01-.73-1.24zm11.68 0h1.05v.06h-1.05zm9.23.45l-.03.48h-.86c.32-.15.58-.32.9-.48zM85 70.97l-.66-.23a.09.09 0 00-.1.06c-.14.43-.3.83-.49 1.21-.02.05 0 .1.05.12l.64.24c.05.02.1 0 .11-.04.13-.3.28-.68.43-1.12m1-3.13a.08.08 0 00-.05-.01h-.54v-.52a.09.09 0 00-.08-.09h-.66a.09.09 0 00-.09.09v.52h-.6a.09.09 0 00-.09.08v.65c0 .05.04.09.09.09h.48c-.18.3-.4.59-.64.86a.09.09 0 00-.02.08c.08.21.15.46.23.76.02.07.1.09.15.03.15-.2.28-.4.4-.6v.72c0 .05.04.08.09.08h.67c.04 0 .07-.04.07-.08v0-.81l.23.19c.04.03.1.02.13-.03l.23-.42v.93c0 .04.04.08.08.08h.02l-.22.19a.16.16 0 00-.03.05v-.01a.09.09 0 00-.09-.09h-.69a.09.09 0 00-.07.09v.95c0 .25.07.46.22.6.15.13.37.19.64.19h1.29c.22 0 .41-.06.57-.18.15-.12.24-.34.35-.69l.26.4c.02.05.08.06.12.03l.6-.44a.09.09 0 00.02-.12c-.24-.35-.47-.67-.7-.97h.25c.05 0 .09-.04.09-.08v-2.9a.09.09 0 00-.09-.09h-2.54a.09.09 0 00-.08.1v1.66l-.59-.36v-.14h.54c.02 0 .03 0 .05-.02m14.75.83h.43v.6h-.43zm-13.92.1h1.05v.16h-1.05zm-5.65.06h.3l-.3.22v0zm.64 0h.85c-.09.3-.21.56-.38.8-.18-.23-.33-.5-.47-.8zm8.36.07h.13v1.41h-.13zm-9.01.4c.15.35.33.67.54.95-.24.18-.51.33-.83.46.17-.42.26-.88.29-1.4zm9.89.16l.03.01h.43c-.06.47-.24.82-.46 1.12v-2.35M88 70.67l-.39.29a.09.09 0 00-.02.12l.17.24c-.12-.06-.22-.1-.36-.19a.09.09 0 00-.13.07 3.8 3.8 0 01-.1.47c0 .06-.03.1-.09.13 0 0 0 0 0 0a.52.52 0 01-.25.05h-.8c-.08 0-.12-.02-.15-.05-.03-.02-.04-.06-.04-.14v-.72a18.46 18.46 0 01.72.8c.03.03.09.04.12 0l.51-.43a.09.09 0 000-.14c-.17-.15-.51-.5-.51-.5z" fill="#fffffb" stroke="#000" stroke-width=".25" stroke-miterlimit="8" paint-order="fill markers stroke"/><circle cx="54.54" cy="64.71" r="4.92" fill="#b87a1a" paint-order="fill markers stroke"/><path d="M49.64 65.14l.05.37c-5.18 3.61-.2 2.56 4.2.7 4.4-1.85 10.9-6.44 4.28-4.76l-.26-.28c7.82-2.8 6.9 1.07-3.22 5.7-10.12 4.64-11.08 1.63-5.05-1.73z" fill="#d7bb8f"/><path d="M50.35 67.31a4.92 4.92 0 018.37-5.2z" fill="#b87a1a" paint-order="fill markers stroke"/><path d="M124.03 72.46l-.63-.38-.64-.4-.65.77.78.47.78.48.36-.94" fill="#231f20"/><path d="M122.76 71.63c-.02 0-.03 0-.04.02l-.65.76a.06.06 0 00.01.09l.78.47.78.48a.06.06 0 00.04 0c.02 0 .03-.02.04-.03l.37-.93a.06.06 0 00-.03-.07l-.63-.4-.64-.38-.03-.01m0 .06l.64.39.63.38-.36.94-.78-.48-.78-.47.65-.76" fill="#fff"/><path d="M123.23 70.73l-.79.97.87.52.86.53.48-1.15 1.83-3.05-1.43-.86-1.82 3.04" fill="#fff"/><path d="M123.72 72.42l.46-1 .53-.9.32.3-.47.8-.44 1.04-.4-.24" fill="#e9e8e8"/><path d="M122.2 72.45l.46-.54.3.18-.4.58-.37-.22" fill="#393637"/><path d="M128.75 75.34l-.64-.4-.64-.38-.65.76.78.47.78.48.37-.93" fill="#231f20"/><path d="M127.47 74.5c-.01 0-.03 0-.04.02l-.65.77a.06.06 0 00.01.08l.78.47.78.48h.05l.03-.03.37-.93a.06.06 0 00-.02-.07l-.64-.39-.64-.39h-.03m0 .05l.64.39.64.39-.37.93-.78-.48-.78-.47.65-.76" fill="#fff"/><path d="M127.94 73.6l-.78.97.86.53.86.52.49-1.15 1.44-2.4-1-1.59-1.87 3.12" fill="#fff"/><path d="M128.43 75.3l.46-1.02.6-1 .4.16-.62 1.05-.44 1.05-.4-.25" fill="#e9e8e8"/><path d="M126.9 75.32l.47-.54.3.18-.4.58-.36-.22" fill="#393637"/><path d="M131.19 69.07c-.08-1.21.66-3.15 1.61-4.74.52-.86.86-1.92 1-2.75l-.65-.4-.65-.4a8.4 8.4 0 00-1.95 2.18c-.95 1.59-2.32 3.15-3.42 3.64-1.1.48-3.3.52-3.78 1.33l-.52.87 3.7 3.4 4.72 1.74.52-.87c.49-.81-.5-2.8-.58-4" fill="#fff"/><path d="M132.76 62.19l-.15-.1c-.02 0-.06-.03-.16-.1-.2-.11-.76 0-.82.1l-.1.15.2.11c.07-.13.15-.24.47-.17l-.03.06.25.16.26.15.04-.06c.21.26.15.38.07.51l.18.11.09-.14c.06-.1-.1-.66-.3-.78m-9.28 5.98c.5-.82 2.7-.85 3.8-1.34 1.1-.49 2.09-1.59 3.04-3.18.35-.57.83-1.37 1.35-2.12a7.9 7.9 0 00-1.12 1.43c-.95 1.59-2.32 3.15-3.42 3.64-1.1.48-3.3.52-3.78 1.33l-.52.87.17.17.48-.8m8.02 4.88c.5-.8-.5-2.79-.58-4-.08-1.2.42-2.6 1.37-4.2.35-.57.83-1.37 1.25-2.18a7.97 7.97 0 01-.74 1.66c-.95 1.59-1.7 3.53-1.61 4.74.08 1.2 1.07 3.19.58 4l-.52.87-.23-.09.48-.8m2.23-12.82c-.19-.11-.67.12-1.23.56l.65.4.65.4c.13-.71.1-1.25-.07-1.36" fill="#231f20"/><path d="M126.25 70.44l-3.1-1.89-.09.16 3.1 1.89.1-.16m5.06 3.09l-3.1-1.9-.1.17 3.1 1.88.1-.15" fill="#231f20"/><path d="M124.78 70.29s.13 0 .46-.25l.64.4-.37.62-.73-.77m.62-.37a16.7 16.7 0 002.16-2.38c.84-1.07 1.16-1.44 3.15-4.38-.26.46-3.76 5.83-3.76 5.83l-.5.84a1.05 1.05 0 00-.47.44l-.58-.35" fill="#f8f8f8"/><path d="M125.24 70.04l.16-.12.58.35-.1.16-.64-.39" fill="#231f20"/><path d="M128.02 72.6l.38-.64.64.4a1.19 1.19 0 000 .52l-1.02-.29m.47-.78v-.01c.15-.24.2-.44.18-.61l.5-.84s3.1-5.62 3.38-6.07c-1.66 3.15-1.84 3.6-2.39 4.85a16 16 0 00-1.09 3.03l-.58-.35" fill="#ebebeb"/><path d="M128.4 71.96l.1-.15.57.35-.03.2-.64-.4" fill="#231f20"/><path d="M125.98 70.27c.46-.76 1.1-.45 1.1-.45l.53.32-1.23 2.04-1.13-.69.73-1.22" fill="#fff"/><path d="M126.19 72.02l1.1-1.85a.09.09 0 00.01-.08c-.03-.1-.22-.19-.22-.19s.02-.03.35.17c.05.03.07.07.08.1.02.04 0 .08 0 .08l-1.14 1.88-.18-.11" fill="#e9e8e8"/><path d="M128.5 71.8c.45-.76-.12-1.19-.12-1.19l-.53-.32-1.22 2.04 1.13.7.74-1.23" fill="#fff"/><path d="M126.68 72.32l1.13-1.88s.05-.1.19-.02c.27.17.3.22.3.23 0 0-.25-.2-.33-.07l-1.1 1.85-.2-.11" fill="#e9e8e8"/><path d="M125.54 74.2a.04.04 0 01-.06.02l-.23-.14a.04.04 0 01-.01-.05l2.29-3.81a.04.04 0 01.05-.01l.23.14c.02 0 .02.03.01.05l-2.28 3.8" fill="#fff"/><path d="M127.72 70.3l.05.02-.05-.03" fill="#e9e8e8"/><path d="M125.4 74.16v-.03l2.29-3.81.03-.03.05.03.04.03v.04l-2.3 3.8c0 .02-.02.04-.03.03l-.08-.05m2.41-3.89l.03-.07 4.37-7.29c.03-.03.05-.06.06-.05l.08.05c0 .01 0 .04-.02.07l-4.38 7.29a.25.25 0 01-.03.05l-.07-.04v.01l-.04-.02" fill="#e9e8e8"/><path d="M127.85 70.3l.07.03h-.02l-.05-.03" fill="#e9e8e8"/><path d="M133.72 62l-.38-.3-.07-.34-.16-.1-.17-.1-.33.1-.44-.2-.06.04.48.23.3.01.14.05.1.1.15.27.43.32V62" fill="#231f20"/><path d="M86.92 23.12L32.44 54.75v62.71l54.48 31.59 54.83-31.59v-62.7z" fill="none" stroke="#000" stroke-width="1.7"/></g></svg>