<svg overflow="hidden" xmlns="http://www.w3.org/2000/svg" viewBox="0 0 1024 1024"><defs><clipPath id="b"><circle r="350.821" cx="87.726" cy="515.673"/><circle r="350.821" cx="933.947" cy="515.673"/></clipPath><clipPath id="a"><path d="M100.121 274.82 511.493 38.322 922.865 274.82v474.361L511.493 985.677 100.121 749.181z"/></clipPath></defs><path fill="#29323f" d="M77.262 261.641 511.494 12l434.232 249.641v500.721l-434.232 249.639L77.262 762.362z"/><g clip-path="url(#a)"><g clip-path="url(#b)"><path fill="#0b3d91" d="M0 0h1024v1024H0z"/><ellipse cx="512.017" cy="860.984" rx="557.587" ry="247.962" fill="#0065b9"/></g><g fill="red"><path d="M223.646 197.058c15.455-9.826 39.039-28.677 54.494-38.503 17.964 12.533 38.084 31.886 55.392 50.235 17.312 18.348 34.069 37.45 48.474 59.86 14.4 22.41 27.872 47.502 37.932 74.6 10.06 27.097 18.163 56.324 22.429 87.985 4.267 31.66 6.649 67.508 3.16 101.971-3.485 34.468-9.683 68.113-21.375 99.421-11.692 31.309-27.997 60.309-48.774 88.432-20.771 28.129-28.496 30.485-42.749 45.725 69.484-85.261 87.199-209.245 87.912-308.024-27.094-110.627-109.268-214.311-196.895-261.702Z"/><path d="M800.388 835.369c-15.455 9.819-39.039 28.653-54.494 38.472-17.963-12.521-38.084-31.86-55.391-50.191-17.313-18.336-34.069-37.417-48.475-59.81-14.4-22.387-27.871-47.462-37.931-74.535-10.061-27.074-18.163-56.279-22.43-87.908-4.266-31.634-6.649-67.451-3.159-101.887 3.484-34.437 9.682-68.05 21.374-99.332 11.693-31.28 27.998-60.257 48.774-88.358 20.771-28.102 28.496-30.456 42.749-45.684-54.14 62.784-72.986 151.823-89.114 221.802-7.415 138 90.525 286.565 198.097 347.431Z"/></g><g fill="#fff"><path d="m227.96 194.765-77.259 41.949c26.297 2.756 48.952 13.883 72.793 25.41 23.841 11.527 49.325 26.537 70.253 43.753 20.929 17.216 39.307 36.862 55.324 59.54 16.011 22.679 31.419 49.14 40.765 76.529 9.347 27.394 13.687 59.243 15.324 87.807 1.637 28.57-.137 55.612-5.5 83.599-5.363 27.987-12.82 56.032-26.685 84.318-13.86 28.28-38.027 69.581-56.483 85.383 19.81-20.047 44.014-48.926 60.261-74.226 16.242-25.3 28.386-51.445 37.218-77.58 8.827-26.139 13.687-49.697 15.77-79.238 2.083-29.545 1.721-67.561-3.28-98.035-5.006-30.469-16.295-62.644-26.743-84.798-10.449-22.152-22.288-42.951-38.037-63.75-15.749-20.799-34.914-39.994-55.27-58.337-20.357-18.344-50.517-37.589-78.451-52.324Z"/><path d="m796.074 838.155 77.26-41.946c-26.297-2.76-48.952-13.886-72.794-25.41-23.841-11.53-49.324-26.539-70.253-43.757-20.929-17.213-39.307-36.861-55.323-59.537-16.011-22.682-31.419-49.141-40.766-76.53-9.346-27.394-13.686-59.243-15.323-87.808-1.638-28.569.136-55.611 5.499-83.598 5.364-27.987 12.821-56.032 26.686-84.315 13.859-28.284 38.026-69.587 56.483-85.386-19.811 20.047-44.014 48.924-60.262 74.226-16.242 25.301-28.385 51.446-37.218 77.579-8.827 26.14-13.686 49.698-15.77 79.238-2.083 29.546-1.721 67.561 3.28 98.036 5.007 30.469 16.295 62.644 26.744 84.795 10.448 22.157 22.287 42.954 38.036 63.751 15.749 20.803 34.914 39.994 55.271 58.341 20.356 18.341 50.516 37.585 78.45 52.321Z"/></g></g><g fill="#fff"><path d="m825.578 347.741 11.451-3.201 2.456-14.904 2.456 14.904 11.451 3.201-11.451 3.201-2.456 14.904-2.456-14.904Z"/><path d="m881.73 387.625 11.451-3.201 2.456-14.904 2.456 14.904 11.451 3.201-11.451 3.201-2.456 14.904-2.456-14.904Z"/><path d="m789.368 417.538 11.23-3.201 2.414-14.904 2.414 14.904 11.231 3.201-11.231 3.201-2.414 14.904-2.414-14.904Z"/><path d="m816.132 598.59 30.27-5.747 4.628-37.548 4.629 37.548 30.27 5.747-30.27 5.746-4.629 37.549-4.628-37.549Z"/><path d="m135.482 631.127 11.23-3.202 2.414-14.904 2.414 14.904 11.231 3.202-11.231 3.201-2.414 14.904-2.414-14.904Z"/><path d="m169.593 550.309 11.23-3.201 2.415-14.904 2.414 14.904 11.23 3.201-11.23 3.201-2.414 14.904-2.415-14.904Z"/><path d="m140.205 338.82 19.763-4.474 3.59-24.652 3.584 24.652 19.769 4.474-19.769 4.473-3.584 24.652-3.59-24.652Z"/><path d="m232.568 373.98 19.716-4.811 3.899-24.314 3.899 24.314 19.717 4.811-19.717 4.812-3.899 24.314-3.899-24.314Z"/><path d="m206.328 608.036 11.451-3.201 2.456-14.904 2.456 14.904 11.451 3.201-11.451 3.201-2.456 14.904-2.456-14.904Z"/></g><g fill="#ffc000"><path d="m239.631 707.955 67.252 14.154 44.413-56.315 6.098 71.46 63.94 25.185-63.479 30.007-4.896 71.881-45.326-52.915-66.968 19.244 35.46-62.712Z"/><path d="m608.877 259.097 62.88-27.727 3.223-71.652 46.638 54.49 66.627-16.844-34.054 61.403 37.953 61.242-67.687-16.541-43.169 54.694-7.778-71.627Z"/></g><path d="m396.303 460.138-86.831 155.01L206.656 438.96l86.2-.714 51.245 93.072 36.127-71.08 10.587-19.53zm116.668-26.506c3.78-.054 9.612.289 12.96.762 3.348.474 9.09 1.732 12.762 2.796 3.672 1.064 9.327 3.212 12.567 4.772 3.865 1.862 7.576 4.48 10.789 7.611 3.834 3.737 4.9 5.285 4.914 7.13.01 1.296-.515 3.152-1.166 4.124-.652.972-2.245 1.944-3.54 2.16-1.297.216-2.975.067-3.732-.33-.755-.398-3.848-2.7-6.872-5.117s-7.972-5.43-10.996-6.694c-3.024-1.263-7.972-2.88-10.996-3.59-3.422-.805-7.772-1.193-11.521-1.028-5.153.226-6.32.548-8.071 2.228-1.397 1.34-2.04 2.774-2.027 4.517.01 1.404.775 4.055 1.697 5.89.922 1.837 4.18 7.05 7.242 11.585 3.745 5.55 9.553 12.359 17.762 20.823 6.709 6.917 14.68 15.4 17.717 18.85 3.034 3.452 6.992 8.218 8.792 10.594 1.802 2.376 4.722 6.617 6.489 9.425 1.767 2.808 4.262 7.226 5.543 9.818 1.28 2.592 2.853 6.657 3.496 9.032.641 2.376 1.168 6.794 1.171 9.818 0 3.024-.362 6.912-.81 8.64-.448 1.728-1.402 4.555-2.12 6.283-.718 1.728-2.597 5.086-4.175 7.462-1.58 2.376-4.957 6.264-7.507 8.64-2.665 2.48-7.643 5.873-11.696 7.968-3.883 2.008-9.886 4.53-13.342 5.605-3.456 1.075-8.934 2.437-12.174 3.026-3.657.666-11.102 1.044-19.636.999-12.193-.065-14.631-.307-21.599-2.142-4.32-1.138-11.389-3.828-15.708-5.977-4.32-2.15-10.304-5.78-13.297-8.068-2.993-2.288-6.449-5.398-7.679-6.91-1.255-1.541-2.432-4.128-2.681-5.89-.381-2.7-.149-3.418 1.655-5.105 1.196-1.119 3.038-1.964 4.28-1.964 1.582 0 3.553 1.291 7.201 4.719 2.762 2.596 7.85 6.58 11.306 8.857 3.456 2.276 8.934 5.156 12.174 6.401 3.24 1.244 8.011 2.683 10.603 3.197 2.592.514 7.769.811 11.504.661 5.462-.219 7.118-.58 8.468-1.843 1.104-1.033 1.674-2.513 1.665-4.32-.01-1.742-1.05-4.476-2.842-7.462-1.556-2.591-4.83-6.988-7.277-9.771-2.447-2.782-10.248-11.441-17.335-19.243-7.086-7.8-15.244-17.011-18.126-20.467-2.883-3.456-6.93-8.58-8.992-11.389-2.062-2.808-5.448-8.64-7.523-12.96-2.076-4.32-4.239-9.797-4.806-12.173-.567-2.376-1.023-7.501-1.012-11.389.014-4.945.526-8.72 1.704-12.567.925-3.024 3.061-7.618 4.745-10.21 1.685-2.592 4.973-6.496 7.308-8.678 2.334-2.18 6.011-5.164 8.171-6.63 2.16-1.467 6.578-3.864 9.818-5.328 3.24-1.462 8.365-3.332 11.389-4.155 3.023-.823 7.972-1.81 10.996-2.195 3.023-.384 8.59-.743 12.37-.798zm174.56 6.174c19.44.017 41.353.385 48.696.816 7.344.432 16.887 1.493 21.207 2.358 4.32.866 10.152 2.324 12.96 3.24 2.807.918 6.695 2.46 8.639 3.428 1.944.967 5.302 2.87 7.461 4.232 2.16 1.36 6.178 4.673 8.928 7.36 2.75 2.69 6.461 7.186 8.247 9.994 1.786 2.807 3.836 6.342 4.557 7.854.72 1.512 1.957 4.87 2.748 7.461 1.054 3.45 1.44 7.239 1.44 14.138 0 7.064-.363 10.507-1.446 13.745-.795 2.376-2.562 6.615-3.927 9.42-1.365 2.806-3.92 7.047-5.678 9.425-1.757 2.379-5.291 6.092-7.854 8.252-2.562 2.16-5.719 4.67-7.015 5.577-1.295.908-3.946 2.443-5.89 3.41-1.944.969-6.362 2.744-9.818 3.947-3.456 1.202-9.818 2.635-14.138 3.185-4.98.633-11.445.822-17.672.514-5.4-.267-10.612-.672-11.585-.901l-1.767-.416V601.614H651.01l-.022-80.31c-.012-44.17.253-80.584.59-80.92.335-.336 16.515-.596 35.954-.578zm48.103 11.988-10.018-.589.01 47.322.01 47.322 1.375.57c.756.313 7.736.578 15.512.588 12.694.018 14.74-.17 20.028-1.831 3.24-1.02 7.835-2.805 10.21-3.97 2.377-1.165 5.911-3.197 7.855-4.516 1.944-1.319 5.355-4.48 7.58-7.026 2.224-2.546 5.281-7.103 6.793-10.127 1.511-3.024 3.202-7.442 3.757-9.818.554-2.376 1.008-6.617 1.008-9.425 0-2.808-.467-7.049-1.037-9.425-.571-2.376-2.099-6.44-3.396-9.032-1.296-2.592-3.634-6.285-5.193-8.207-1.56-1.922-4.192-4.75-5.848-6.283-1.656-1.534-5.19-4.122-7.854-5.75-2.664-1.628-7.493-3.844-10.733-4.923-3.24-1.079-9.072-2.486-12.96-3.127-3.887-.64-11.577-1.429-17.086-1.753z" fill="#fff"/></svg>